<svg width="24" height="24" viewBox="0 0 24 24" fill="none" xmlns="http://www.w3.org/2000/svg">
<g clip-path="url(#clip0_1083_898)">
<mask id="mask0_1083_898" style="mask-type:alpha" maskUnits="userSpaceOnUse" x="1" y="0" width="29" height="29">
<rect x="1" width="29" height="29" fill="#D9D9D9"/>
</mask>
<g mask="url(#mask0_1083_898)">
<path d="M7.85647 10.9712C8.14647 10.3912 8.45661 9.8193 8.78689 9.25541C9.11717 8.69152 9.46758 8.1518 9.83814 7.63624L7.92897 7.24957L5.2948 9.88374L7.85647 10.9712ZM20.3023 3.43124C18.659 3.5118 17.1767 3.86221 15.8556 4.48249C14.5345 5.10277 13.2456 6.04124 11.989 7.29791C11.4895 7.79735 10.974 8.44985 10.4423 9.25541C9.91064 10.061 9.43536 10.9229 9.01647 11.8412L12.2306 15.0554C13.149 14.6365 14.0109 14.1612 14.8165 13.6296C15.622 13.0979 16.2745 12.5824 16.774 12.0829C18.0306 10.8262 18.9691 9.54138 19.5894 8.22832C20.2097 6.91527 20.5601 5.43707 20.6406 3.79374C20.6406 3.74541 20.6326 3.69707 20.6165 3.64874C20.6004 3.60041 20.5762 3.56013 20.544 3.52791C20.5118 3.49568 20.4755 3.47152 20.4352 3.45541C20.3949 3.4393 20.3506 3.43124 20.3023 3.43124ZM14.5748 9.52124C14.2526 9.19902 14.0915 8.80027 14.0915 8.32499C14.0915 7.84971 14.2526 7.45096 14.5748 7.12874C14.897 6.80652 15.2958 6.64541 15.7711 6.64541C16.2463 6.64541 16.6451 6.80652 16.9673 7.12874C17.2895 7.45096 17.4506 7.84971 17.4506 8.32499C17.4506 8.80027 17.2895 9.19902 16.9673 9.52124C16.6451 9.84346 16.2463 10.0046 15.7711 10.0046C15.2958 10.0046 14.897 9.84346 14.5748 9.52124ZM13.1006 16.2396L14.1881 18.7771L16.8223 16.1429L16.4598 14.2337C15.9442 14.6043 15.4005 14.9587 14.8286 15.2971C14.2566 15.6354 13.6806 15.9496 13.1006 16.2396ZM22.1148 2.73041C22.1631 4.7443 21.8369 6.6011 21.1361 8.30082C20.4352 10.0005 19.3276 11.6076 17.8131 13.1221C17.797 13.1382 17.7809 13.1503 17.7648 13.1583C17.7487 13.1664 17.7326 13.1785 17.7165 13.1946L18.2481 15.8529C18.2965 16.0946 18.2884 16.3282 18.224 16.5537C18.1595 16.7793 18.0387 16.9807 17.8615 17.1579L14.454 20.5654C14.2767 20.7426 14.0633 20.8071 13.8136 20.7587C13.5638 20.7104 13.3906 20.5654 13.294 20.3237L11.6506 16.5296L7.56647 12.4212L3.74814 10.8021C3.50647 10.7054 3.3655 10.5282 3.32522 10.2704C3.28494 10.0126 3.35342 9.79513 3.53064 9.61791L6.91397 6.23457C7.09119 6.05735 7.29258 5.93249 7.51814 5.85999C7.74369 5.78749 7.9773 5.77541 8.21897 5.82374L10.8773 6.35541C10.8934 6.3393 10.9095 6.32721 10.9256 6.31916C10.9417 6.3111 10.9579 6.29902 10.974 6.28291C12.4884 4.76846 14.0915 3.66082 15.7831 2.95999C17.4748 2.25916 19.3276 1.93291 21.3415 1.98124C21.4381 1.98124 21.5308 2.00138 21.6194 2.04166C21.708 2.08193 21.7926 2.14235 21.8731 2.22291C21.9537 2.30346 22.0141 2.38402 22.0544 2.46457C22.0947 2.54513 22.1148 2.63374 22.1148 2.73041ZM4.40064 15.3454C4.96453 14.7815 5.65328 14.4955 6.46689 14.4875C7.2805 14.4794 7.96925 14.7574 8.53314 15.3212C9.09703 15.8851 9.37494 16.5739 9.36689 17.3875C9.35883 18.2011 9.07286 18.8899 8.50897 19.4537C7.75175 20.211 6.8455 20.6661 5.79022 20.8192C4.73494 20.9722 3.67564 21.1212 2.6123 21.2662L3.0473 18.0762C3.1923 17.0129 3.64342 16.1026 4.40064 15.3454ZM5.41564 16.3846C5.02897 16.8035 4.77925 17.2868 4.66647 17.8346C4.55369 18.3824 4.44897 18.9382 4.3523 19.5021C4.91619 19.4054 5.47203 19.3007 6.0198 19.1879C6.56758 19.0751 7.05092 18.8254 7.4698 18.4387C7.79203 18.1649 7.95314 17.8225 7.95314 17.4117C7.95314 17.0008 7.80814 16.6424 7.51814 16.3362C7.21203 16.0462 6.85355 15.9012 6.44272 15.9012C6.03189 15.9012 5.68953 16.0624 5.41564 16.3846Z" fill="white"/>
</g>
</g>
<defs>
<clipPath id="clip0_1083_898">
<rect width="24" height="24" fill="white"/>
</clipPath>
</defs>
</svg>
