<svg width="189" height="51" viewBox="0 0 189 51" fill="none" xmlns="http://www.w3.org/2000/svg">
<path d="M25.7237 50.9789C22.1653 50.9789 18.8212 50.3098 15.6915 48.9716C12.5618 47.6334 9.83933 45.8173 7.52419 43.5232C5.20905 41.2292 3.37624 38.5316 2.02574 35.4303C0.675248 32.3291 0 29.0155 0 25.4894C0 21.9634 0.675248 18.6498 2.02574 15.5486C3.37624 12.4473 5.20905 9.74971 7.52419 7.45566C9.83933 5.16161 12.5618 3.34549 15.6915 2.00729C18.8212 0.669098 22.1653 0 25.7237 0C29.2822 0 32.6263 0.669098 35.756 2.00729C38.8857 3.34549 41.6081 5.16161 43.9233 7.45566C46.2384 9.74971 48.0712 12.4473 49.4217 15.5486C50.7722 18.6498 51.4475 21.9634 51.4475 25.4894C51.4475 29.0155 50.7722 32.3291 49.4217 35.4303C48.0712 38.5316 46.2384 41.2292 43.9233 43.5232C41.6081 45.8173 38.8857 47.6334 35.756 48.9716C32.6263 50.3098 29.2822 50.9789 25.7237 50.9789ZM25.7237 45.881C31.4258 45.881 36.2812 43.895 40.2898 39.9228C44.2984 35.9507 46.3027 31.1396 46.3027 25.4894C46.3027 19.8393 44.2984 15.0282 40.2898 11.056C36.2812 7.08394 31.4258 5.09789 25.7237 5.09789C20.0216 5.09789 15.1663 7.08394 11.1577 11.056C7.14905 15.0282 5.14475 19.8393 5.14475 25.4894C5.14475 31.1396 7.14905 35.9507 11.1577 39.9228C15.1663 43.895 20.0216 45.881 25.7237 45.881Z" fill="#253143"/>
<path d="M74.6071 35.3794C71.3931 35.3794 68.9414 34.5897 67.2517 33.0102C65.5621 31.4308 64.7173 29.1994 64.7173 26.316C64.7173 23.3409 65.5438 21.0635 67.1967 19.4841C68.8495 17.8863 71.3105 17.0874 74.5795 17.0874C75.6815 17.0874 76.664 17.1701 77.5272 17.3354C78.3904 17.5007 79.2168 17.7302 80.0065 18.0241V22.542C78.4271 21.8441 76.7375 21.4951 74.9377 21.4951C73.2664 21.4951 72.0267 21.8808 71.2187 22.6522C70.4106 23.4051 70.0066 24.6264 70.0066 26.316C70.0066 27.9689 70.429 29.1627 71.2738 29.8973C72.1369 30.6135 73.3766 30.9717 74.9928 30.9717C75.8743 30.9717 76.7283 30.889 77.5547 30.7237C78.3995 30.5585 79.2352 30.3013 80.0616 29.9524V34.4978C79.2719 34.7733 78.4363 34.9845 77.5547 35.1314C76.6916 35.2967 75.709 35.3794 74.6071 35.3794ZM90.2449 35.3794C87.3065 35.3794 85.0567 34.6631 83.4956 33.2306C81.9529 31.7981 81.1816 29.4841 81.1816 26.2885C81.1816 24.0847 81.5305 22.3124 82.2284 20.9717C82.9263 19.6127 83.9456 18.6301 85.2863 18.0241C86.6453 17.3997 88.2982 17.0874 90.2449 17.0874C92.1916 17.0874 93.8353 17.3997 95.176 18.0241C96.5351 18.6301 97.5635 19.6127 98.2614 20.9717C98.9593 22.3124 99.3082 24.0847 99.3082 26.2885C99.3082 29.4841 98.5277 31.7981 96.9666 33.2306C95.4056 34.6631 93.165 35.3794 90.2449 35.3794ZM90.2449 30.9717C91.5672 30.9717 92.5222 30.6044 93.1099 29.8697C93.716 29.1168 94.019 27.923 94.019 26.2885C94.019 24.5438 93.716 23.3133 93.1099 22.5971C92.5222 21.8624 91.5672 21.4951 90.2449 21.4951C88.9226 21.4951 87.9584 21.8624 87.3524 22.5971C86.7647 23.3133 86.4708 24.5438 86.4708 26.2885C86.4708 27.923 86.7647 29.1168 87.3524 29.8697C87.9584 30.6044 88.9226 30.9717 90.2449 30.9717ZM101.237 35.1039V17.3629H106.278L110.686 26.3711L115.066 17.3629H120.08V35.1039H114.901V26.2334L112.063 32.0736H109.281L106.416 26.2334V35.1039H101.237ZM122.57 35.1039V17.3629H131.716C133.167 17.3629 134.361 17.6568 135.298 18.2445C136.253 18.8138 136.96 19.5943 137.419 20.586C137.878 21.5778 138.108 22.6797 138.108 23.8918C138.108 25.1407 137.841 26.2518 137.309 27.2251C136.776 28.1985 136.023 28.9607 135.05 29.5116C134.076 30.0626 132.928 30.3381 131.606 30.3381H127.749V35.1039H122.57ZM127.749 26.3711H130.422C131.23 26.3711 131.827 26.1416 132.212 25.6824C132.616 25.2233 132.818 24.6264 132.818 23.8918C132.818 23.1021 132.635 22.4777 132.267 22.0185C131.9 21.5594 131.331 21.3298 130.559 21.3298H127.749V26.3711ZM136.735 35.1039L143.539 17.3629H149.022L155.826 35.1039H150.426L148.939 31.3298H143.595L142.135 35.1039H136.735ZM144.283 27.6108H148.25L146.267 22.4042L144.283 27.6108ZM162.872 35.3794C161.678 35.3794 160.549 35.2875 159.484 35.1039C158.418 34.9019 157.509 34.6264 156.756 34.2774V30.0075C157.583 30.3932 158.501 30.7054 159.511 30.9441C160.521 31.1829 161.467 31.3022 162.349 31.3022C163.267 31.3022 163.956 31.2288 164.415 31.0819C164.892 30.9166 165.131 30.5585 165.131 30.0075C165.131 29.6218 164.993 29.3188 164.718 29.0984C164.461 28.878 164.047 28.676 163.478 28.4923C162.927 28.3087 162.202 28.0791 161.302 27.8036C160.108 27.418 159.162 26.9956 158.464 26.5364C157.766 26.0773 157.261 25.5172 156.949 24.856C156.655 24.1948 156.508 23.3868 156.508 22.4318C156.508 20.6871 157.124 19.3648 158.354 18.4648C159.603 17.5466 161.449 17.0874 163.891 17.0874C164.865 17.0874 165.866 17.1701 166.894 17.3354C167.941 17.5007 168.786 17.6843 169.428 17.8863V22.1838C168.565 21.8349 167.739 21.587 166.949 21.44C166.159 21.2931 165.416 21.2197 164.718 21.2197C163.91 21.2197 163.221 21.2839 162.652 21.4125C162.082 21.541 161.798 21.8716 161.798 22.4042C161.798 22.8634 162.036 23.2031 162.514 23.4235C163.01 23.6255 163.882 23.8918 165.131 24.2224C166.582 24.6081 167.684 25.0764 168.437 25.6273C169.208 26.1783 169.731 26.8211 170.007 27.5557C170.282 28.272 170.42 29.0892 170.42 30.0075C170.42 31.6236 169.796 32.9276 168.547 33.9193C167.298 34.8927 165.406 35.3794 162.872 35.3794ZM177.884 35.3794C176.69 35.3794 175.56 35.2875 174.495 35.1039C173.43 34.9019 172.521 34.6264 171.768 34.2774V30.0075C172.594 30.3932 173.513 30.7054 174.523 30.9441C175.533 31.1829 176.479 31.3022 177.36 31.3022C178.278 31.3022 178.967 31.2288 179.426 31.0819C179.904 30.9166 180.142 30.5585 180.142 30.0075C180.142 29.6218 180.005 29.3188 179.729 29.0984C179.472 28.878 179.059 28.676 178.49 28.4923C177.939 28.3087 177.213 28.0791 176.313 27.8036C175.12 27.418 174.174 26.9956 173.476 26.5364C172.778 26.0773 172.273 25.5172 171.961 24.856C171.667 24.1948 171.52 23.3868 171.52 22.4318C171.52 20.6871 172.135 19.3648 173.366 18.4648C174.614 17.5466 176.46 17.0874 178.903 17.0874C179.876 17.0874 180.877 17.1701 181.906 17.3354C182.952 17.5007 183.797 17.6843 184.44 17.8863V22.1838C183.577 21.8349 182.75 21.587 181.961 21.44C181.171 21.2931 180.427 21.2197 179.729 21.2197C178.921 21.2197 178.232 21.2839 177.663 21.4125C177.094 21.541 176.809 21.8716 176.809 22.4042C176.809 22.8634 177.048 23.2031 177.525 23.4235C178.021 23.6255 178.894 23.8918 180.142 24.2224C181.593 24.6081 182.695 25.0764 183.448 25.6273C184.22 26.1783 184.743 26.8211 185.018 27.5557C185.294 28.272 185.432 29.0892 185.432 30.0075C185.432 31.6236 184.807 32.9276 183.558 33.9193C182.31 34.8927 180.418 35.3794 177.884 35.3794Z" fill="#253143"/>
<path d="M16.4266 36.3502L29.417 32.6543C30.2745 32.3994 31.0141 31.9639 31.6357 31.3479C32.2574 30.7319 32.6968 29.9991 32.9541 29.1495L36.684 16.2773C36.8126 15.81 36.6947 15.3958 36.3303 15.0347C35.9659 14.6736 35.5479 14.5568 35.0763 14.6842L22.0858 18.3802C21.2283 18.6351 20.4888 19.0705 19.8671 19.6865C19.2454 20.3025 18.806 21.0353 18.5488 21.885L14.8188 34.7571C14.6902 35.2245 14.8081 35.6387 15.1725 35.9998C15.5369 36.3609 15.955 36.4777 16.4266 36.3502Z" fill="url(#paint0_linear_12_61)"/>
<defs>
<linearGradient id="paint0_linear_12_61" x1="21.1557" y1="18.7248" x2="35.2344" y2="32.0371" gradientUnits="userSpaceOnUse">
<stop offset="0.09" stop-color="#7C4DFF"/>
<stop offset="1" stop-color="#1783FF"/>
</linearGradient>
</defs>
</svg>
