<svg version="1.1" xmlns="http://www.w3.org/2000/svg" xmlns:xlink="http://www.w3.org/1999/xlink" width="50px" height="50px" viewBox="0,0,256,256"><g fill="#6c5ce7" fill-rule="nonzero" stroke="none" stroke-width="1" stroke-linecap="butt" stroke-linejoin="miter" stroke-miterlimit="10" stroke-dasharray="" stroke-dashoffset="0" font-family="none" font-weight="none" font-size="none" text-anchor="none" style="mix-blend-mode: normal"><g transform="scale(5.12,5.12)"><path d="M25,4c-11.57812,0 -21,9.42188 -21,21c0,11.57813 9.42188,21 21,21c11.57813,0 21,-9.42187 21,-21c0,-0.66406 -0.05078,-1.30859 -0.09375,-1.79687c-0.02734,-0.35156 -0.23828,-0.65625 -0.55078,-0.8125c-0.3125,-0.15625 -0.6875,-0.13672 -0.98047,0.05078c-0.57031,0.36719 -1.21875,0.55859 -1.875,0.55859c-1.4375,0 -2.71094,-0.86719 -3.24609,-2.20703c-0.10547,-0.26562 -0.32031,-0.47656 -0.58594,-0.57422c-0.26953,-0.09375 -0.56641,-0.07422 -0.82031,0.0625c-0.86719,0.46875 -1.85156,0.71875 -2.84766,0.71875c-3.30859,0 -6,-2.69141 -6,-6c0,-0.99219 0.25,-1.98047 0.71875,-2.84766c0.13672,-0.25391 0.16016,-0.55078 0.0625,-0.82031c-0.09766,-0.26562 -0.30469,-0.48047 -0.57031,-0.58594c-1.34375,-0.53516 -2.21094,-1.80859 -2.21094,-3.24609c0,-0.65625 0.19141,-1.30469 0.55859,-1.875c0.1875,-0.29687 0.20703,-0.66797 0.05078,-0.98047c-0.15625,-0.3125 -0.46484,-0.52344 -0.8125,-0.55469c-0.52734,-0.04687 -1.15234,-0.08984 -1.79687,-0.08984zM38,4c-1.10547,0 -2,0.89453 -2,2c0,1.10547 0.89453,2 2,2c1.10547,0 2,-0.89453 2,-2c0,-1.10547 -0.89453,-2 -2,-2zM36.5,12c-0.82812,0 -1.5,0.67188 -1.5,1.5c0,0.82813 0.67188,1.5 1.5,1.5c0.82813,0 1.5,-0.67187 1.5,-1.5c0,-0.82812 -0.67187,-1.5 -1.5,-1.5zM21.5,15c0.82813,0 1.5,0.67188 1.5,1.5c0,0.82813 -0.67187,1.5 -1.5,1.5c-0.82812,0 -1.5,-0.67187 -1.5,-1.5c0,-0.82812 0.67188,-1.5 1.5,-1.5zM45,15c-0.55078,0 -1,0.44922 -1,1c0,0.55078 0.44922,1 1,1c0.55078,0 1,-0.44922 1,-1c0,-0.55078 -0.44922,-1 -1,-1zM15,20c1.65625,0 3,1.34375 3,3c0,1.65625 -1.34375,3 -3,3c-1.65625,0 -3,-1.34375 -3,-3c0,-1.65625 1.34375,-3 3,-3zM24.5,24c0.82813,0 1.5,0.67188 1.5,1.5c0,0.82813 -0.67187,1.5 -1.5,1.5c-0.82812,0 -1.5,-0.67187 -1.5,-1.5c0,-0.82812 0.67188,-1.5 1.5,-1.5zM17,31c1.10547,0 2,0.89453 2,2c0,1.10547 -0.89453,2 -2,2c-1.10547,0 -2,-0.89453 -2,-2c0,-1.10547 0.89453,-2 2,-2zM30.5,32c1.38281,0 2.5,1.11719 2.5,2.5c0,1.38281 -1.11719,2.5 -2.5,2.5c-1.38281,0 -2.5,-1.11719 -2.5,-2.5c0,-1.38281 1.11719,-2.5 2.5,-2.5z"></path></g></g></svg>